<svg xmlns="http://www.w3.org/2000/svg" xmlns:xlink="http://www.w3.org/1999/xlink" width="500" zoomAndPan="magnify" viewBox="0 0 375 374.999991" height="500" preserveAspectRatio="xMidYMid meet" version="1.0"><defs><g/><clipPath id="fe0b3875a6"><path d="M 30 37.5 L 345 37.5 L 345 352.5 L 30 352.5 Z M 30 37.5 " clip-rule="nonzero"/></clipPath><clipPath id="bca604dcc2"><path d="M 143.511719 124 L 175 124 L 175 170 L 143.511719 170 Z M 143.511719 124 " clip-rule="nonzero"/></clipPath><clipPath id="0fe26c21ff"><path d="M 200 124 L 231.261719 124 L 231.261719 170 L 200 170 Z M 200 124 " clip-rule="nonzero"/></clipPath><clipPath id="dae2df2c81"><path d="M 172 113.175781 L 203 113.175781 L 203 181.425781 L 172 181.425781 Z M 172 113.175781 " clip-rule="nonzero"/></clipPath></defs><g clip-path="url(#fe0b3875a6)"><path fill="#000000" d="M 345 195 C 345 197.578125 344.9375 200.152344 344.808594 202.726562 C 344.683594 205.300781 344.496094 207.871094 344.242188 210.4375 C 343.988281 213.003906 343.671875 215.558594 343.296875 218.109375 C 342.917969 220.660156 342.476562 223.199219 341.972656 225.726562 C 341.472656 228.253906 340.90625 230.769531 340.28125 233.269531 C 339.652344 235.769531 338.964844 238.253906 338.21875 240.71875 C 337.46875 243.1875 336.660156 245.632812 335.792969 248.058594 C 334.925781 250.488281 333.996094 252.890625 333.011719 255.273438 C 332.023438 257.652344 330.980469 260.011719 329.878906 262.339844 C 328.777344 264.671875 327.617188 266.972656 326.402344 269.246094 C 325.1875 271.519531 323.917969 273.761719 322.59375 275.972656 C 321.265625 278.183594 319.886719 280.359375 318.457031 282.503906 C 317.023438 284.644531 315.539062 286.753906 314.003906 288.824219 C 312.46875 290.894531 310.882812 292.925781 309.25 294.917969 C 307.613281 296.910156 305.929688 298.859375 304.199219 300.769531 C 302.46875 302.679688 300.691406 304.546875 298.871094 306.371094 C 297.046875 308.191406 295.179688 309.96875 293.269531 311.699219 C 291.359375 313.429688 289.410156 315.113281 287.417969 316.75 C 285.425781 318.382812 283.394531 319.96875 281.324219 321.503906 C 279.253906 323.039062 277.144531 324.523438 275.003906 325.957031 C 272.859375 327.386719 270.683594 328.765625 268.472656 330.09375 C 266.261719 331.417969 264.019531 332.6875 261.746094 333.902344 C 259.472656 335.117188 257.171875 336.277344 254.839844 337.378906 C 252.507812 338.480469 250.152344 339.523438 247.773438 340.511719 C 245.390625 341.496094 242.988281 342.425781 240.558594 343.292969 C 238.132812 344.160156 235.6875 344.96875 233.21875 345.71875 C 230.753906 346.464844 228.269531 347.152344 225.769531 347.78125 C 223.269531 348.40625 220.753906 348.972656 218.226562 349.472656 C 215.699219 349.976562 213.160156 350.417969 210.609375 350.796875 C 208.058594 351.171875 205.503906 351.488281 202.9375 351.742188 C 200.371094 351.996094 197.800781 352.183594 195.226562 352.308594 C 192.652344 352.4375 190.078125 352.5 187.5 352.5 C 184.921875 352.5 182.347656 352.4375 179.773438 352.308594 C 177.199219 352.183594 174.628906 351.996094 172.0625 351.742188 C 169.496094 351.488281 166.941406 351.171875 164.390625 350.796875 C 161.839844 350.417969 159.300781 349.976562 156.773438 349.472656 C 154.246094 348.972656 151.730469 348.40625 149.230469 347.78125 C 146.730469 347.152344 144.246094 346.464844 141.78125 345.71875 C 139.3125 344.96875 136.867188 344.160156 134.441406 343.292969 C 132.011719 342.425781 129.609375 341.496094 127.226562 340.511719 C 124.847656 339.523438 122.488281 338.480469 120.160156 337.378906 C 117.828125 336.277344 115.527344 335.117188 113.253906 333.902344 C 110.980469 332.6875 108.738281 331.417969 106.527344 330.09375 C 104.316406 328.765625 102.140625 327.386719 99.996094 325.957031 C 97.855469 324.523438 95.746094 323.039062 93.675781 321.503906 C 91.605469 319.96875 89.574219 318.382812 87.582031 316.75 C 85.589844 315.113281 83.640625 313.429688 81.730469 311.699219 C 79.820312 309.96875 77.953125 308.191406 76.128906 306.371094 C 74.308594 304.546875 72.53125 302.679688 70.800781 300.769531 C 69.070312 298.859375 67.386719 296.910156 65.75 294.917969 C 64.117188 292.925781 62.53125 290.894531 60.996094 288.824219 C 59.460938 286.753906 57.976562 284.644531 56.542969 282.503906 C 55.113281 280.359375 53.734375 278.183594 52.40625 275.972656 C 51.082031 273.761719 49.8125 271.519531 48.597656 269.246094 C 47.382812 266.972656 46.222656 264.671875 45.121094 262.339844 C 44.019531 260.007812 42.976562 257.652344 41.988281 255.273438 C 41.003906 252.890625 40.074219 250.488281 39.207031 248.058594 C 38.339844 245.632812 37.53125 243.1875 36.78125 240.71875 C 36.035156 238.253906 35.347656 235.769531 34.71875 233.269531 C 34.09375 230.769531 33.527344 228.253906 33.027344 225.726562 C 32.523438 223.199219 32.082031 220.660156 31.703125 218.109375 C 31.328125 215.558594 31.011719 213.003906 30.757812 210.4375 C 30.503906 207.871094 30.316406 205.300781 30.191406 202.726562 C 30.0625 200.152344 30 197.578125 30 195 C 30 192.421875 30.0625 189.847656 30.191406 187.273438 C 30.316406 184.699219 30.503906 182.128906 30.757812 179.5625 C 31.011719 176.996094 31.328125 174.441406 31.703125 171.890625 C 32.082031 169.339844 32.523438 166.800781 33.027344 164.273438 C 33.527344 161.746094 34.09375 159.230469 34.71875 156.730469 C 35.347656 154.230469 36.035156 151.746094 36.78125 149.28125 C 37.53125 146.8125 38.339844 144.367188 39.207031 141.941406 C 40.074219 139.511719 41.003906 137.109375 41.988281 134.726562 C 42.976562 132.347656 44.019531 129.988281 45.121094 127.660156 C 46.222656 125.328125 47.382812 123.027344 48.597656 120.753906 C 49.8125 118.480469 51.082031 116.238281 52.40625 114.027344 C 53.734375 111.816406 55.113281 109.640625 56.542969 107.496094 C 57.976562 105.355469 59.460938 103.246094 60.996094 101.175781 C 62.53125 99.105469 64.117188 97.074219 65.75 95.082031 C 67.386719 93.089844 69.070312 91.140625 70.800781 89.230469 C 72.53125 87.320312 74.308594 85.453125 76.128906 83.628906 C 77.953125 81.808594 79.820312 80.03125 81.730469 78.300781 C 83.640625 76.570312 85.589844 74.886719 87.582031 73.25 C 89.574219 71.617188 91.605469 70.03125 93.675781 68.496094 C 95.746094 66.960938 97.855469 65.476562 99.996094 64.042969 C 102.140625 62.613281 104.316406 61.234375 106.527344 59.90625 C 108.738281 58.582031 110.980469 57.3125 113.253906 56.097656 C 115.527344 54.882812 117.828125 53.722656 120.160156 52.621094 C 122.488281 51.519531 124.847656 50.476562 127.226562 49.488281 C 129.609375 48.503906 132.011719 47.574219 134.441406 46.707031 C 136.867188 45.839844 139.3125 45.03125 141.78125 44.28125 C 144.246094 43.535156 146.730469 42.847656 149.230469 42.21875 C 151.730469 41.59375 154.246094 41.027344 156.773438 40.527344 C 159.300781 40.023438 161.839844 39.582031 164.390625 39.203125 C 166.941406 38.828125 169.496094 38.511719 172.0625 38.257812 C 174.628906 38.003906 177.199219 37.816406 179.773438 37.691406 C 182.347656 37.5625 184.921875 37.5 187.5 37.5 C 190.078125 37.5 192.652344 37.5625 195.226562 37.691406 C 197.800781 37.816406 200.371094 38.003906 202.9375 38.257812 C 205.503906 38.511719 208.058594 38.828125 210.609375 39.203125 C 213.160156 39.582031 215.699219 40.023438 218.226562 40.527344 C 220.753906 41.027344 223.269531 41.59375 225.769531 42.21875 C 228.269531 42.847656 230.753906 43.535156 233.21875 44.28125 C 235.6875 45.03125 238.132812 45.839844 240.558594 46.707031 C 242.988281 47.574219 245.390625 48.503906 247.773438 49.488281 C 250.152344 50.476562 252.511719 51.519531 254.839844 52.621094 C 257.171875 53.722656 259.472656 54.882812 261.746094 56.097656 C 264.019531 57.3125 266.261719 58.582031 268.472656 59.90625 C 270.683594 61.234375 272.859375 62.613281 275.003906 64.042969 C 277.144531 65.476562 279.253906 66.960938 281.324219 68.496094 C 283.394531 70.03125 285.425781 71.617188 287.417969 73.25 C 289.410156 74.886719 291.359375 76.570312 293.269531 78.300781 C 295.179688 80.03125 297.046875 81.808594 298.871094 83.628906 C 300.691406 85.453125 302.46875 87.320312 304.199219 89.230469 C 305.929688 91.140625 307.613281 93.089844 309.25 95.082031 C 310.882812 97.074219 312.46875 99.105469 314.003906 101.175781 C 315.539062 103.246094 317.023438 105.355469 318.457031 107.496094 C 319.886719 109.640625 321.265625 111.816406 322.59375 114.027344 C 323.917969 116.238281 325.1875 118.480469 326.402344 120.753906 C 327.617188 123.027344 328.777344 125.328125 329.878906 127.660156 C 330.980469 129.988281 332.023438 132.347656 333.011719 134.726562 C 333.996094 137.109375 334.925781 139.511719 335.792969 141.941406 C 336.660156 144.367188 337.46875 146.8125 338.21875 149.28125 C 338.964844 151.746094 339.652344 154.230469 340.28125 156.730469 C 340.90625 159.230469 341.472656 161.746094 341.972656 164.273438 C 342.476562 166.800781 342.917969 169.339844 343.296875 171.890625 C 343.671875 174.441406 343.988281 176.996094 344.242188 179.5625 C 344.496094 182.128906 344.683594 184.699219 344.808594 187.273438 C 344.9375 189.847656 345 192.421875 345 195 Z M 345 195 " fill-opacity="1" fill-rule="nonzero"/></g><path fill="#ffffff" d="M 171.195312 168.820312 C 170.710938 168.820312 170.230469 168.65625 169.851562 168.351562 L 145.308594 149.007812 C 144.78125 148.59375 144.480469 147.96875 144.480469 147.300781 C 144.480469 146.628906 144.78125 146.003906 145.308594 145.585938 L 169.851562 126.246094 C 170.230469 125.941406 170.710938 125.777344 171.195312 125.777344 C 171.863281 125.777344 172.492188 126.078125 172.902344 126.609375 C 173.261719 127.066406 173.421875 127.636719 173.351562 128.210938 C 173.285156 128.789062 172.992188 129.304688 172.539062 129.664062 L 150.171875 147.300781 L 172.539062 164.929688 C 172.992188 165.292969 173.285156 165.808594 173.351562 166.382812 C 173.421875 166.960938 173.261719 167.527344 172.902344 167.988281 C 172.492188 168.515625 171.863281 168.820312 171.195312 168.820312 " fill-opacity="1" fill-rule="nonzero"/><g clip-path="url(#bca604dcc2)"><path fill="#ffffff" d="M 171.195312 124.851562 C 170.503906 124.851562 169.824219 125.085938 169.28125 125.515625 L 144.738281 144.859375 C 143.984375 145.457031 143.554688 146.34375 143.554688 147.300781 C 143.554688 148.257812 143.988281 149.144531 144.738281 149.738281 L 169.28125 169.082031 C 169.820312 169.511719 170.503906 169.746094 171.195312 169.746094 C 172.152344 169.746094 173.042969 169.3125 173.628906 168.558594 C 174.144531 167.910156 174.371094 167.097656 174.273438 166.277344 C 174.175781 165.453125 173.765625 164.714844 173.113281 164.203125 L 151.667969 147.300781 L 173.113281 130.394531 C 173.765625 129.878906 174.175781 129.144531 174.273438 128.324219 C 174.371094 127.5 174.144531 126.6875 173.628906 126.035156 C 173.042969 125.28125 172.148438 124.851562 171.195312 124.851562 Z M 171.195312 126.707031 C 171.566406 126.707031 171.929688 126.867188 172.175781 127.179688 C 172.605469 127.726562 172.507812 128.511719 171.96875 128.9375 L 148.671875 147.300781 L 171.96875 165.660156 C 172.507812 166.085938 172.605469 166.871094 172.175781 167.414062 C 171.929688 167.730469 171.566406 167.894531 171.195312 167.894531 C 170.925781 167.894531 170.652344 167.808594 170.425781 167.625 L 145.882812 148.28125 C 145.582031 148.042969 145.40625 147.679688 145.40625 147.300781 C 145.40625 146.914062 145.582031 146.554688 145.882812 146.316406 L 170.425781 126.972656 C 170.648438 126.789062 170.925781 126.707031 171.195312 126.707031 " fill-opacity="1" fill-rule="nonzero"/></g><path fill="#ffffff" d="M 203.574219 168.820312 C 202.90625 168.820312 202.285156 168.515625 201.863281 167.988281 C 201.125 167.046875 201.289062 165.675781 202.230469 164.929688 L 224.601562 147.300781 L 202.230469 129.664062 C 201.289062 128.921875 201.125 127.550781 201.863281 126.609375 C 202.285156 126.078125 202.90625 125.777344 203.574219 125.777344 C 204.0625 125.777344 204.539062 125.941406 204.917969 126.246094 L 229.460938 145.585938 C 229.988281 146.003906 230.289062 146.628906 230.289062 147.300781 C 230.289062 147.96875 229.988281 148.59375 229.460938 149.007812 L 204.917969 168.351562 C 204.539062 168.65625 204.0625 168.820312 203.574219 168.820312 " fill-opacity="1" fill-rule="nonzero"/><g clip-path="url(#0fe26c21ff)"><path fill="#ffffff" d="M 203.574219 124.851562 C 202.621094 124.851562 201.730469 125.28125 201.140625 126.035156 C 200.082031 127.378906 200.3125 129.335938 201.65625 130.394531 L 223.101562 147.300781 L 201.65625 164.203125 C 200.3125 165.257812 200.082031 167.21875 201.140625 168.558594 C 201.730469 169.3125 202.621094 169.746094 203.574219 169.746094 C 204.269531 169.746094 204.945312 169.511719 205.488281 169.082031 L 230.03125 149.738281 C 230.785156 149.144531 231.214844 148.257812 231.214844 147.300781 C 231.214844 146.34375 230.785156 145.457031 230.035156 144.859375 L 205.492188 125.515625 C 204.949219 125.085938 204.269531 124.851562 203.574219 124.851562 Z M 203.574219 126.707031 C 203.847656 126.707031 204.121094 126.789062 204.347656 126.972656 L 228.890625 146.316406 C 229.1875 146.554688 229.363281 146.914062 229.363281 147.300781 C 229.363281 147.679688 229.1875 148.042969 228.890625 148.28125 L 204.347656 167.625 C 204.121094 167.808594 203.847656 167.894531 203.574219 167.894531 C 203.207031 167.894531 202.839844 167.730469 202.59375 167.414062 C 202.167969 166.871094 202.261719 166.085938 202.800781 165.660156 L 226.097656 147.300781 L 202.800781 128.9375 C 202.261719 128.511719 202.167969 127.726562 202.59375 127.179688 C 202.839844 126.867188 203.210938 126.707031 203.574219 126.707031 " fill-opacity="1" fill-rule="nonzero"/></g><path fill="#ffffff" d="M 175.191406 180.492188 C 174.917969 180.492188 174.65625 180.441406 174.40625 180.34375 C 173.863281 180.132812 173.433594 179.726562 173.203125 179.195312 C 172.964844 178.660156 172.953125 178.070312 173.160156 177.53125 L 197.128906 115.496094 C 197.453125 114.664062 198.265625 114.105469 199.15625 114.105469 C 199.425781 114.105469 199.691406 114.15625 199.945312 114.253906 C 201.058594 114.6875 201.617188 115.953125 201.183594 117.074219 L 177.21875 179.101562 C 176.894531 179.933594 176.078125 180.492188 175.191406 180.492188 " fill-opacity="1" fill-rule="nonzero"/><g clip-path="url(#dae2df2c81)"><path fill="#ffffff" d="M 199.15625 113.179688 C 197.886719 113.179688 196.722656 113.980469 196.265625 115.164062 L 172.296875 177.191406 C 172 177.96875 172.019531 178.808594 172.351562 179.570312 C 172.691406 180.324219 173.296875 180.914062 174.070312 181.207031 C 174.429688 181.351562 174.804688 181.421875 175.191406 181.421875 C 176.460938 181.421875 177.621094 180.621094 178.082031 179.4375 L 202.046875 117.40625 C 202.664062 115.808594 201.867188 114.003906 200.273438 113.390625 C 199.917969 113.25 199.539062 113.179688 199.15625 113.179688 Z M 199.15625 115.03125 C 199.308594 115.03125 199.457031 115.0625 199.605469 115.117188 C 200.25 115.367188 200.570312 116.089844 200.320312 116.734375 L 176.351562 178.765625 C 176.164062 179.261719 175.6875 179.566406 175.191406 179.566406 C 175.039062 179.566406 174.886719 179.539062 174.738281 179.480469 C 174.09375 179.230469 173.773438 178.503906 174.027344 177.863281 L 197.992188 115.832031 C 198.183594 115.335938 198.65625 115.03125 199.15625 115.03125 " fill-opacity="1" fill-rule="nonzero"/></g><g fill="#ffffff" fill-opacity="1"><g transform="translate(65.348397, 244.751556)"><g><path d="M 17.546875 0.921875 C 14.003906 0.921875 11.019531 0.171875 8.59375 -1.328125 C 6.164062 -2.828125 4.328125 -5.035156 3.078125 -7.953125 C 1.835938 -10.878906 1.21875 -14.476562 1.21875 -18.75 C 1.21875 -21.925781 1.660156 -24.734375 2.546875 -27.171875 C 3.429688 -29.609375 4.664062 -31.644531 6.25 -33.28125 C 7.832031 -34.925781 9.671875 -36.171875 11.765625 -37.015625 C 13.867188 -37.867188 16.132812 -38.296875 18.5625 -38.296875 C 21.289062 -38.296875 23.585938 -37.867188 25.453125 -37.015625 C 27.328125 -36.171875 28.992188 -35.0625 30.453125 -33.6875 L 25.8125 -28.890625 C 24.675781 -29.890625 23.585938 -30.628906 22.546875 -31.109375 C 21.503906 -31.597656 20.320312 -31.84375 19 -31.84375 C 17.738281 -31.84375 16.582031 -31.597656 15.53125 -31.109375 C 14.476562 -30.617188 13.5625 -29.847656 12.78125 -28.796875 C 12 -27.742188 11.390625 -26.382812 10.953125 -24.71875 C 10.523438 -23.0625 10.3125 -21.054688 10.3125 -18.703125 C 10.3125 -15.453125 10.578125 -12.863281 11.109375 -10.9375 C 11.640625 -9.019531 12.441406 -7.640625 13.515625 -6.796875 C 14.597656 -5.960938 15.96875 -5.546875 17.625 -5.546875 C 18.5 -5.546875 19.320312 -5.648438 20.09375 -5.859375 C 20.875 -6.066406 21.59375 -6.34375 22.25 -6.6875 L 22.25 -15.21875 L 17.5625 -15.21875 L 16.703125 -21.421875 L 30.609375 -21.421875 L 30.609375 -2.859375 C 28.742188 -1.703125 26.738281 -0.78125 24.59375 -0.09375 C 22.445312 0.582031 20.097656 0.921875 17.546875 0.921875 Z M 17.546875 0.921875 "/></g></g></g><g fill="#ffffff" fill-opacity="1"><g transform="translate(95.628745, 244.751556)"><g><path d="M 27.859375 -8.25 C 27.859375 -7.164062 28.003906 -6.378906 28.296875 -5.890625 C 28.597656 -5.410156 29.082031 -5.046875 29.75 -4.796875 L 28 0.8125 C 26.3125 0.644531 24.882812 0.269531 23.71875 -0.3125 C 22.5625 -0.894531 21.648438 -1.78125 20.984375 -2.96875 C 19.890625 -1.65625 18.488281 -0.675781 16.78125 -0.03125 C 15.082031 0.601562 13.34375 0.921875 11.5625 0.921875 C 8.613281 0.921875 6.265625 0.0820312 4.515625 -1.59375 C 2.765625 -3.28125 1.890625 -5.441406 1.890625 -8.078125 C 1.890625 -11.191406 3.101562 -13.59375 5.53125 -15.28125 C 7.96875 -16.96875 11.394531 -17.8125 15.8125 -17.8125 L 19.671875 -17.8125 L 19.671875 -18.890625 C 19.671875 -20.378906 19.1875 -21.484375 18.21875 -22.203125 C 17.257812 -22.921875 15.859375 -23.28125 14.015625 -23.28125 C 13.097656 -23.28125 11.921875 -23.148438 10.484375 -22.890625 C 9.046875 -22.628906 7.609375 -22.253906 6.171875 -21.765625 L 4.203125 -27.4375 C 6.054688 -28.132812 7.984375 -28.660156 9.984375 -29.015625 C 11.984375 -29.378906 13.773438 -29.5625 15.359375 -29.5625 C 19.617188 -29.5625 22.765625 -28.691406 24.796875 -26.953125 C 26.835938 -25.222656 27.859375 -22.722656 27.859375 -19.453125 Z M 14.5 -5.171875 C 15.414062 -5.171875 16.375 -5.441406 17.375 -5.984375 C 18.382812 -6.535156 19.148438 -7.316406 19.671875 -8.328125 L 19.671875 -12.953125 L 17.5625 -12.953125 C 15.195312 -12.953125 13.457031 -12.585938 12.34375 -11.859375 C 11.226562 -11.140625 10.671875 -10.078125 10.671875 -8.671875 C 10.671875 -7.578125 11.003906 -6.71875 11.671875 -6.09375 C 12.347656 -5.476562 13.289062 -5.171875 14.5 -5.171875 Z M 14.5 -5.171875 "/></g></g></g><g fill="#ffffff" fill-opacity="1"><g transform="translate(125.909092, 244.751556)"><g><path d="M 4.046875 0 L 4.046875 -5.71875 L 7.8125 -5.71875 L 7.8125 -22.953125 L 4.046875 -22.953125 L 4.046875 -28.609375 L 14.3125 -28.609375 L 15.875 -22.171875 C 16.894531 -24.640625 18.195312 -26.472656 19.78125 -27.671875 C 21.375 -28.878906 23.320312 -29.484375 25.625 -29.484375 C 26.59375 -29.484375 27.453125 -29.40625 28.203125 -29.25 C 28.960938 -29.09375 29.675781 -28.878906 30.34375 -28.609375 L 27.75 -21.578125 C 27.226562 -21.722656 26.707031 -21.832031 26.1875 -21.90625 C 25.664062 -21.976562 25.09375 -22.015625 24.46875 -22.015625 C 22.601562 -22.015625 20.960938 -21.25 19.546875 -19.71875 C 18.140625 -18.195312 17.066406 -16.257812 16.328125 -13.90625 L 16.328125 -5.71875 L 21.984375 -5.71875 L 21.984375 0 Z M 23.421875 -16.65625 L 23.421875 -25 L 24.6875 -28.609375 L 30.34375 -28.609375 L 28.75 -16.65625 Z M 23.421875 -16.65625 "/></g></g></g><g fill="#ffffff" fill-opacity="1"><g transform="translate(156.189436, 244.751556)"><g><path d="M 20.046875 -40.875 L 28.5625 -39.984375 L 28.5625 0 L 21.015625 0 L 20.59375 -3.15625 C 19.800781 -2.039062 18.75 -1.082031 17.4375 -0.28125 C 16.125 0.519531 14.535156 0.921875 12.671875 0.921875 C 10.296875 0.921875 8.332031 0.285156 6.78125 -0.984375 C 5.226562 -2.265625 4.066406 -4.050781 3.296875 -6.34375 C 2.535156 -8.632812 2.15625 -11.316406 2.15625 -14.390625 C 2.15625 -17.335938 2.613281 -19.953125 3.53125 -22.234375 C 4.445312 -24.515625 5.757812 -26.304688 7.46875 -27.609375 C 9.175781 -28.910156 11.203125 -29.5625 13.546875 -29.5625 C 14.828125 -29.5625 16.015625 -29.335938 17.109375 -28.890625 C 18.203125 -28.441406 19.179688 -27.785156 20.046875 -26.921875 Z M 15.84375 -23.328125 C 14.375 -23.328125 13.1875 -22.628906 12.28125 -21.234375 C 11.382812 -19.847656 10.9375 -17.546875 10.9375 -14.328125 C 10.9375 -11.984375 11.125 -10.15625 11.5 -8.84375 C 11.882812 -7.539062 12.40625 -6.628906 13.0625 -6.109375 C 13.726562 -5.585938 14.492188 -5.328125 15.359375 -5.328125 C 16.304688 -5.328125 17.171875 -5.625 17.953125 -6.21875 C 18.734375 -6.8125 19.429688 -7.625 20.046875 -8.65625 L 20.046875 -20.984375 C 19.453125 -21.722656 18.820312 -22.296875 18.15625 -22.703125 C 17.5 -23.117188 16.726562 -23.328125 15.84375 -23.328125 Z M 15.84375 -23.328125 "/></g></g></g><g fill="#ffffff" fill-opacity="1"><g transform="translate(186.469788, 244.751556)"><g><path d="M 12.5 -7.03125 L 30.28125 -7.03125 L 29.375 0 L 2.109375 0 L 2.109375 -6.609375 L 19.828125 -30.53125 L 4.046875 -30.53125 L 4.046875 -37.34375 L 29.875 -37.34375 L 29.875 -30.6875 Z M 12.5 -7.03125 "/></g></g></g><g fill="#ffffff" fill-opacity="1"><g transform="translate(216.75014, 244.751556)"><g><path d="M 16.171875 -29.5625 C 19.117188 -29.5625 21.625 -28.929688 23.6875 -27.671875 C 25.75 -26.410156 27.328125 -24.644531 28.421875 -22.375 C 29.523438 -20.101562 30.078125 -17.441406 30.078125 -14.390625 C 30.078125 -11.210938 29.519531 -8.476562 28.40625 -6.1875 C 27.300781 -3.894531 25.71875 -2.132812 23.65625 -0.90625 C 21.59375 0.3125 19.097656 0.921875 16.171875 0.921875 C 13.253906 0.921875 10.757812 0.320312 8.6875 -0.875 C 6.613281 -2.082031 5.023438 -3.828125 3.921875 -6.109375 C 2.816406 -8.390625 2.265625 -11.128906 2.265625 -14.328125 C 2.265625 -17.367188 2.816406 -20.03125 3.921875 -22.3125 C 5.023438 -24.59375 6.613281 -26.367188 8.6875 -27.640625 C 10.757812 -28.921875 13.253906 -29.5625 16.171875 -29.5625 Z M 16.171875 -23.28125 C 14.421875 -23.28125 13.128906 -22.566406 12.296875 -21.140625 C 11.460938 -19.710938 11.046875 -17.441406 11.046875 -14.328125 C 11.046875 -11.171875 11.460938 -8.878906 12.296875 -7.453125 C 13.128906 -6.035156 14.421875 -5.328125 16.171875 -5.328125 C 17.910156 -5.328125 19.195312 -6.035156 20.03125 -7.453125 C 20.863281 -8.878906 21.28125 -11.191406 21.28125 -14.390625 C 21.28125 -17.472656 20.863281 -19.722656 20.03125 -21.140625 C 19.195312 -22.566406 17.910156 -23.28125 16.171875 -23.28125 Z M 16.171875 -23.28125 "/></g></g></g><g fill="#ffffff" fill-opacity="1"><g transform="translate(247.030492, 244.751556)"><g><path d="M 18.9375 -5.796875 C 20.101562 -5.796875 21.203125 -6.023438 22.234375 -6.484375 C 23.273438 -6.941406 24.304688 -7.53125 25.328125 -8.25 L 29.125 -2.859375 C 27.863281 -1.773438 26.332031 -0.875 24.53125 -0.15625 C 22.726562 0.5625 20.710938 0.921875 18.484375 0.921875 C 15.410156 0.921875 12.769531 0.285156 10.5625 -0.984375 C 8.351562 -2.253906 6.65625 -4.015625 5.46875 -6.265625 C 4.28125 -8.515625 3.6875 -11.132812 3.6875 -14.125 C 3.6875 -17.101562 4.289062 -19.753906 5.5 -22.078125 C 6.71875 -24.410156 8.441406 -26.238281 10.671875 -27.5625 C 12.910156 -28.894531 15.566406 -29.5625 18.640625 -29.5625 C 20.816406 -29.5625 22.753906 -29.257812 24.453125 -28.65625 C 26.148438 -28.050781 27.707031 -27.15625 29.125 -25.96875 L 25.4375 -20.859375 C 24.46875 -21.535156 23.441406 -22.0625 22.359375 -22.4375 C 21.285156 -22.820312 20.164062 -23.015625 19 -23.015625 C 17.070312 -23.015625 15.519531 -22.332031 14.34375 -20.96875 C 13.164062 -19.613281 12.578125 -17.332031 12.578125 -14.125 C 12.578125 -12.019531 12.851562 -10.359375 13.40625 -9.140625 C 13.96875 -7.929688 14.726562 -7.070312 15.6875 -6.5625 C 16.65625 -6.050781 17.738281 -5.796875 18.9375 -5.796875 Z M 18.9375 -5.796875 "/></g></g></g><g fill="#ffffff" fill-opacity="1"><g transform="translate(277.310844, 244.751556)"><g><path d="M 30.9375 -28.609375 L 21.53125 -15.953125 L 31.71875 0 L 22.015625 0 L 12.609375 -15.6875 L 22.015625 -28.609375 Z M 12.28125 -40.875 L 12.28125 0 L 3.765625 0 L 3.765625 -39.984375 Z M 12.28125 -40.875 "/></g></g></g></svg>